<?xml version="1.0" encoding="UTF-8"?>
<svg version="1.1" xmlns="http://www.w3.org/2000/svg" width="512" height="512">
<path d="M0 0 C1.43859112 -0.0027004 2.87718045 -0.00658736 4.31576538 -0.01159668 C7.3267357 -0.01747747 10.33722984 -0.0089831 13.34814453 0.00976562 C17.17079443 0.03243156 20.99231298 0.01950327 24.81492043 -0.00452423 C27.78706038 -0.01912745 30.75894188 -0.01430866 33.73109055 -0.00401306 C35.13821934 -0.00137914 36.54537306 -0.00449544 37.95247269 -0.01393127 C50.16281932 -0.07780025 61.85840424 1.32226526 71.40625 9.55859375 C80.94981345 19.31466569 83.78236787 32.60179135 87.2265625 45.40625 C87.57926537 46.70621862 87.93227838 48.00610313 88.2855835 49.3059082 C89.01795445 52.00440171 89.74704423 54.70375258 90.47363281 57.40380859 C91.40475922 60.8631135 92.34359982 64.32026962 93.28476334 67.77685547 C94.01161478 70.44920454 94.73477655 73.12254093 95.45677948 75.79620361 C95.96896883 77.69066291 96.48400543 79.58435168 96.99908447 81.47802734 C97.30650574 82.62352051 97.613927 83.76901367 97.93066406 84.94921875 C98.20283752 85.95750732 98.47501099 86.9657959 98.75543213 88.00463867 C99.3359375 90.53125 99.3359375 90.53125 99.3359375 93.53125 C100.55708755 93.52902939 101.77823761 93.52680878 103.03639221 93.52452087 C179.63377505 93.39082477 256.23168587 93.50498115 332.82867527 93.76857471 C345.55098868 93.812207 358.2732736 93.85117573 370.99563599 93.87741089 C381.985821 93.90017339 392.97591412 93.93342706 403.96602565 93.97985125 C409.65958736 94.00361599 415.35306084 94.02255343 421.04667091 94.02888107 C426.32021839 94.03491829 431.59352998 94.05485202 436.86698997 94.08552945 C438.7828692 94.09427646 440.69877918 94.0980344 442.61467755 94.09625709 C467.41309223 94.08050596 467.41309223 94.08050596 477.32421875 102.42578125 C484.68052663 110.12490736 486.93074076 118.08056844 486.71136475 128.49301147 C486.16383378 138.89234198 483.19160426 149.08866297 480.78125 159.17578125 C480.19831546 161.67271028 479.61695827 164.17000801 479.03707886 166.66764832 C477.66303681 172.56889398 476.27348202 178.46627986 474.87602603 184.36201829 C473.17267261 191.5521841 471.49256727 198.7477195 469.8125 205.94335938 C468.02585957 213.59135204 466.23555158 221.2384032 464.42755127 228.88137817 C461.70460856 240.39475166 459.00877921 251.91129964 456.43261719 263.45849609 C455.770476 266.40093077 455.107411 269.34315599 454.44417953 272.28534508 C453.85151054 274.93828884 453.27543217 277.59445388 452.69998169 280.25117493 C450.05043929 292.17068405 446.77325674 305.02404056 436.3359375 312.53125 C429.37966754 316.55327205 423.26226411 319.6543771 415.16526413 319.65874195 C413.58796512 319.66325342 413.58796512 319.66325342 411.97880149 319.66785604 C410.82473438 319.66610567 409.67066726 319.66435529 408.48162842 319.66255188 C407.25470598 319.66466759 406.02778355 319.66678331 404.76368165 319.66896313 C402.06802388 319.6728883 399.37243628 319.67498113 396.67678261 319.67399788 C392.29073306 319.67240502 387.90470629 319.67760744 383.5186615 319.68362427 C377.1502966 319.69173774 370.7819357 319.69668128 364.41356659 319.69991493 C354.34635228 319.70541217 344.27917184 319.72231039 334.2119751 319.74125671 C330.76762014 319.74761349 327.3232651 319.75392192 323.87891006 319.76023388 C322.58771232 319.76260952 322.58771232 319.76260952 321.27042978 319.76503316 C311.47114181 319.78297086 301.67185146 319.79919664 291.87255859 319.81420898 C290.97674404 319.81558486 290.08092948 319.81696073 289.15796903 319.81837829 C274.64304433 319.84030556 260.12812835 319.85106391 245.61319003 319.85857973 C230.71038208 319.86665208 215.80764889 319.88994623 200.90488362 319.9265334 C191.71325538 319.94855362 182.52178086 319.95822453 173.33012757 319.95203307 C167.02962396 319.94885733 160.72925158 319.96019615 154.42878857 319.98292748 C150.79434777 319.99558878 147.16019935 320.00177317 143.5257473 319.99051094 C139.58305178 319.97845067 135.64084287 319.99727005 131.69818115 320.01899719 C130.55303693 320.01055466 129.4078927 320.00211212 128.22804713 319.99341375 C121.47477938 320.06228984 117.09361423 320.92855689 111.3359375 324.53125 C108.36113511 327.87088664 107.11307439 332.10726175 106.7734375 336.53125 C107.05932987 341.20697354 108.92235721 345.32390686 112.3359375 348.53125 C119.2468462 351.82534742 125.36734539 351.95210603 132.94374084 351.90306091 C134.83318669 351.90879776 134.83318669 351.90879776 136.76080316 351.9146505 C140.24098792 351.92488595 143.72091765 351.91664721 147.20108998 351.90535367 C150.9605033 351.89647731 154.71988139 351.90501019 158.47929382 351.91156006 C164.98894105 351.92070486 171.49851773 351.91939683 178.00816536 351.91137505 C187.42757419 351.90013274 196.84688274 351.90919378 206.26628285 351.92393685 C221.55976301 351.94769494 236.85323079 351.96107228 252.14672852 351.96508789 C253.06147768 351.96533276 253.97622684 351.96557763 254.91869568 351.96582992 C265.12729557 351.96837655 275.33589451 351.96894217 285.54449463 351.96789551 C289.24816894 351.96756247 292.95184326 351.96727708 296.65551758 351.96704102 C297.56945261 351.96697823 298.48338763 351.96691544 299.42501766 351.96685075 C314.66354897 351.96624598 329.90202307 351.98112361 345.14053053 352.00787407 C354.53666324 352.02368048 363.93261128 352.02593587 373.32874595 352.01074005 C379.76514851 352.00127911 386.20143967 352.00602401 392.63782913 352.02195387 C396.35116917 352.03065355 400.06421327 352.0327758 403.7775383 352.01742744 C407.80363015 352.00091896 411.82902925 352.01522375 415.8551178 352.03245544 C417.02768303 352.02264867 418.20024825 352.01284189 419.40834576 352.00273794 C425.93913579 352.06067288 430.03672059 352.60534069 435.3359375 356.53125 C438.201287 360.01419363 439.23855752 363.7243873 439.7734375 368.15625 C439.0735448 373.55542228 437.27873379 376.93016139 433.1484375 380.40625 C431.75625 381.458125 431.75625 381.458125 430.3359375 382.53125 C430.6246875 383.44003906 430.9134375 384.34882813 431.2109375 385.28515625 C435.98049557 401.43209762 435.94227512 417.0406109 427.765625 432.16015625 C420.18048873 444.73987679 408.94432844 453.05601071 394.84375 457.27734375 C378.37977232 461.09088491 363.48023173 457.30978686 349.3359375 448.53125 C338.33777021 441.1286374 331.38084862 428.37566186 328.7265625 415.59765625 C327.44367343 405.52697702 328.00736325 396.12030327 331.3359375 386.53125 C331.6659375 385.54125 331.9959375 384.55125 332.3359375 383.53125 C301.9759375 383.53125 271.6159375 383.53125 240.3359375 383.53125 C241.3259375 386.17125 242.3159375 388.81125 243.3359375 391.53125 C246.81888364 405.46303456 244.55664435 420.34444242 237.5859375 432.78125 C228.85667532 446.16756272 217.75655213 454.27468444 202.03515625 457.91015625 C187.41493093 460.36487201 173.90745863 457.32253102 161.3359375 449.53125 C148.68014589 440.08014382 141.06683762 427.74644805 138.65234375 412.171875 C137.57069855 403.14481137 138.21268645 392.77775211 142.3359375 384.53125 C141.61116211 384.51666748 140.88638672 384.50208496 140.13964844 384.48706055 C136.78793252 384.41161228 133.43711004 384.31527834 130.0859375 384.21875 C128.94640625 384.19619141 127.806875 384.17363281 126.6328125 384.15039062 C112.1181181 383.69680643 99.34068041 380.33332418 88.4609375 370.21875 C77.9640692 358.82580757 74.80719892 346.13098441 75.0625 331.12109375 C75.49721501 320.6341321 79.80211051 312.54496088 86.3359375 304.53125 C86.83609375 303.89445312 87.33625 303.25765625 87.8515625 302.6015625 C94.41303331 295.14534567 103.94647865 290.95972033 113.58520508 289.4387207 C114.66296707 289.26645462 115.74072906 289.09418854 116.85115051 288.91670227 C117.67113022 288.78950302 118.49110992 288.66230377 119.3359375 288.53125 C99.19516808 213.54420506 99.19516808 213.54420506 78.9855957 138.57568359 C78.74197202 137.67374205 78.49834833 136.7718005 78.24734211 135.84252739 C77.27401473 132.23917494 76.30068204 128.63582395 75.32708931 125.03254318 C72.469491 114.45565134 69.62147944 103.876277 66.78999329 93.29236317 C65.00125625 86.60629047 63.20717742 79.92166881 61.40890503 73.23815441 C60.17060558 68.63421461 58.93973528 64.02837838 57.7146349 59.42090988 C56.97044166 56.62963679 56.21885143 53.8403976 55.46504021 51.05170822 C54.95730683 49.16456791 54.45855526 47.27501819 53.96009827 45.38540649 C53.65639816 44.26781952 53.35269806 43.15023254 53.03979492 41.9987793 C52.78131271 41.03256149 52.52283051 40.06634369 52.2565155 39.07084656 C51.25438467 36.30627037 50.47048224 34.56828326 48.3359375 32.53125 C45.53980021 31.93240566 45.53980021 31.93240566 42.30737305 32.03295898 C41.06565842 32.02292343 39.82394379 32.01288788 38.54460144 32.00254822 C37.54974763 32.00862752 37.54974763 32.00862752 36.53479576 32.01482964 C34.45314386 32.02746216 32.37281774 32.01616882 30.29121399 31.99879456 C26.61915296 31.97206918 22.94741631 31.96649933 19.27526855 31.96789551 C13.40860951 31.9701217 7.54235411 31.9558766 1.67585182 31.91230965 C-0.36827856 31.90250711 -2.41177003 31.91117172 -4.45588684 31.92100525 C-5.70705795 31.91412186 -6.95822906 31.90723846 -8.24731445 31.90014648 C-9.3441304 31.90110825 -10.44094635 31.90207001 -11.57099915 31.90306091 C-16.46340253 31.31495496 -19.69077208 29.60976101 -22.9765625 25.96875 C-26.41381051 21.00383621 -26.25053599 16.45463226 -25.6640625 10.53125 C-23.69761803 6.20507216 -21.21646312 3.66150844 -17.04058838 1.3671875 C-11.61537297 -0.54111951 -5.68608267 -0.03775044 0 0 Z M108.3359375 124.53125 C109.88610532 133.27067396 109.88610532 133.27067396 111.92407227 141.81298828 C112.22100479 142.91007111 112.51793732 144.00715393 112.8238678 145.13748169 C113.13851486 146.28062836 113.45316193 147.42377502 113.77734375 148.6015625 C114.10508286 149.80440887 114.43282196 151.00725525 114.77049255 152.24655151 C115.45827458 154.76654421 116.14833431 157.28591627 116.84057617 159.8046875 C117.72839488 163.0371426 118.61085525 166.27094991 119.49015903 169.50572395 C120.33241993 172.60111938 121.18003941 175.69504447 122.02734375 178.7890625 C122.34401505 179.95245148 122.66068634 181.11584045 122.98695374 182.31448364 C123.2807341 183.38004486 123.57451447 184.44560608 123.87719727 185.54345703 C124.13541763 186.48512726 124.393638 187.42679749 124.65968323 188.39700317 C125.14328539 190.49209466 125.14328539 190.49209466 126.3359375 191.53125 C128.11585674 191.62495624 129.89950489 191.64869271 131.68188477 191.64477539 C132.8229921 191.64469986 133.96409943 191.64462433 135.13978577 191.64454651 C137.00225197 191.63680458 137.00225197 191.63680458 138.90234375 191.62890625 C140.16610336 191.6274913 141.42986298 191.62607635 142.73191833 191.62461853 C146.09718639 191.61995582 149.4623874 191.6109648 152.82763672 191.59991455 C156.2594342 191.58969846 159.69123859 191.58512049 163.12304688 191.58007812 C169.86069574 191.5690238 176.59831275 191.5522671 183.3359375 191.53125 C181.69581992 176.99675459 180.00929039 162.47380535 178.02832031 147.98144531 C177.70007355 145.576659 177.37722051 143.17118372 177.0546875 140.765625 C176.84405758 139.2108958 176.63313281 137.65620651 176.421875 136.1015625 C176.32707855 135.39444122 176.2322821 134.68731995 176.13461304 133.95877075 C175.69172004 130.74023063 175.1257716 127.69058641 174.3359375 124.53125 C152.5559375 124.53125 130.7759375 124.53125 108.3359375 124.53125 Z M205.3359375 124.53125 C208.3059375 146.64125 211.2759375 168.75125 214.3359375 191.53125 C233.1459375 191.53125 251.9559375 191.53125 271.3359375 191.53125 C271.3359375 169.75125 271.3359375 147.97125 271.3359375 125.53125 C256.63582076 124.66612998 256.63582076 124.66612998 241.95703125 124.43359375 C240.53783386 124.43510437 240.53783386 124.43510437 239.08996582 124.43664551 C235.65111021 124.44176553 232.21227225 124.45572367 228.7734375 124.46875 C221.0390625 124.489375 213.3046875 124.51 205.3359375 124.53125 Z M302.3359375 125.53125 C302.3359375 147.31125 302.3359375 169.09125 302.3359375 191.53125 C320.8159375 191.53125 339.2959375 191.53125 358.3359375 191.53125 C360.75335684 175.53681283 360.75335684 175.53681283 362.94140625 159.515625 C363.05633423 158.63148926 363.17126221 157.74735352 363.28967285 156.83642578 C363.70308955 153.65164707 364.11309231 150.46642592 364.5234375 147.28125 C365.4515625 140.10375 366.3796875 132.92625 367.3359375 125.53125 C345.8859375 125.53125 324.4359375 125.53125 302.3359375 125.53125 Z M398.3359375 125.53125 C395.89280894 141.41158565 393.51931854 157.21903223 391.5859375 173.15625 C390.8434375 179.22 390.1009375 185.28375 389.3359375 191.53125 C406.1659375 191.53125 422.9959375 191.53125 440.3359375 191.53125 C441.66305803 187.54988841 442.80939106 183.82598746 443.75634766 179.77294922 C444.01646637 178.66515106 444.27658508 177.55735291 444.54458618 176.41598511 C444.81862274 175.2345694 445.0926593 174.05315369 445.375 172.8359375 C445.66071869 171.61093536 445.94643738 170.38593323 446.24081421 169.12380981 C446.84235503 166.54038865 447.4426533 163.95671421 448.04101562 161.37255859 C448.80718188 158.06498021 449.57999168 154.75899412 450.35459328 151.45338249 C451.09462352 148.29017744 451.82820092 145.12547705 452.5625 141.9609375 C452.97962753 140.18274124 452.97962753 140.18274124 453.40518188 138.36862183 C453.65899628 137.26712799 453.91281067 136.16563416 454.17431641 135.03076172 C454.3992276 134.06290741 454.62413879 133.0950531 454.85586548 132.09786987 C455.45850813 129.31113642 455.45850813 129.31113642 455.3359375 125.53125 C436.5259375 125.53125 417.7159375 125.53125 398.3359375 125.53125 Z M134.3359375 222.53125 C137.23647028 234.8585143 140.21567779 247.11269904 143.48999023 259.33789062 C144.0175135 261.31976053 144.53788995 263.30354499 145.05151367 265.2890625 C145.80578731 268.20251277 146.58202232 271.10931091 147.36328125 274.015625 C147.69947731 275.3405899 147.69947731 275.3405899 148.04246521 276.69232178 C149.45040029 281.81427794 150.7295212 285.46198321 155.3359375 288.53125 C158.50856479 289.17263981 161.56727232 289.11510178 164.79296875 289.01953125 C165.69593185 289.01245651 166.59889496 289.00538177 167.52922058 288.99809265 C170.40314838 288.97018319 173.27510222 288.90745232 176.1484375 288.84375 C178.10088325 288.81866262 180.05335965 288.79585022 182.00585938 288.77539062 C186.78330852 288.72036789 191.55928876 288.63411998 196.3359375 288.53125 C194.6776971 274.25322597 192.90720029 259.99092166 191.04745483 245.737854 C190.82314844 244.01708001 190.59986107 242.29617287 190.37759399 240.57513428 C190.06209369 238.13561409 189.7425703 235.69665452 189.421875 233.2578125 C189.32717422 232.52133484 189.23247345 231.78485718 189.13490295 231.02606201 C188.74108091 228.06203642 188.28435193 225.3764933 187.3359375 222.53125 C169.8459375 222.53125 152.3559375 222.53125 134.3359375 222.53125 Z M218.3359375 222.53125 C219.35953814 230.39129043 220.38345905 238.251277 221.41053009 246.11086273 C221.88875067 249.77114052 222.36637144 253.43149427 222.8425293 257.09204102 C223.30139604 260.61947702 223.76192873 264.14669191 224.2236042 267.67376137 C224.48452515 269.670475 224.74373234 271.66741233 225.00291443 273.66435242 C225.16300491 274.88524063 225.3230954 276.10612885 225.48803711 277.36401367 C225.62793564 278.43656906 225.76783417 279.50912445 225.91197205 280.61418152 C226.29762908 283.26767123 226.8100778 285.90195151 227.3359375 288.53125 C241.8559375 288.53125 256.3759375 288.53125 271.3359375 288.53125 C271.3359375 266.75125 271.3359375 244.97125 271.3359375 222.53125 C253.8459375 222.53125 236.3559375 222.53125 218.3359375 222.53125 Z M302.3359375 222.53125 C302.3359375 244.31125 302.3359375 266.09125 302.3359375 288.53125 C316.5259375 288.53125 330.7159375 288.53125 345.3359375 288.53125 C346.95383574 280.56170634 346.95383574 280.56170634 348.20556641 272.57836914 C348.34556061 271.52770767 348.48555481 270.4770462 348.62979126 269.39454651 C348.77258514 268.29626022 348.91537903 267.19797394 349.0625 266.06640625 C349.21504242 264.91128036 349.36758484 263.75615448 349.52474976 262.56602478 C349.84394201 260.14342872 350.16151517 257.72061883 350.47753906 255.29760742 C350.96272945 251.58001986 351.45363304 247.8632187 351.9453125 244.14648438 C352.25554347 241.78650236 352.56545087 239.42647779 352.875 237.06640625 C353.02184235 235.95395035 353.16868469 234.84149445 353.31997681 233.69532776 C353.45366669 232.66673141 353.58735657 231.63813507 353.72509766 230.57836914 C353.84341949 229.67365372 353.96174133 228.76893829 354.08364868 227.83680725 C354.39032604 225.4207702 354.39032604 225.4207702 354.3359375 222.53125 C337.1759375 222.53125 320.0159375 222.53125 302.3359375 222.53125 Z M385.3359375 222.53125 C384.3871875 229.316875 383.4384375 236.1025 382.4609375 243.09375 C382.16590332 245.20209229 381.87086914 247.31043457 381.56689453 249.48266602 C380.93746058 253.98292862 380.31384287 258.48398396 379.69104004 262.98516846 C379.36481605 265.32419111 379.03089488 267.66195807 378.69433594 269.99951172 C378.51161133 271.29775879 378.32888672 272.59600586 378.140625 273.93359375 C377.98319824 275.03050537 377.82577148 276.12741699 377.66357422 277.25756836 C377.28407594 281.04944054 377.282535 284.72178494 377.3359375 288.53125 C382.67442422 288.63019543 388.01237619 288.70275414 393.3515625 288.75097656 C395.1674123 288.77108061 396.98319745 288.79836835 398.79882812 288.83300781 C401.41031855 288.88158039 404.02095248 288.90423027 406.6328125 288.921875 C407.44337097 288.94252014 408.25392944 288.96316528 409.08905029 288.98443604 C412.44687999 288.98577002 414.83501332 288.83908621 417.72753906 287.06152344 C420.02791772 283.4426521 420.84976024 279.8146025 421.7734375 275.65625 C421.98025146 274.77710938 422.18706543 273.89796875 422.40014648 272.9921875 C423.05897276 270.17482848 423.69733944 267.35325443 424.3359375 264.53125 C424.76436975 262.69501917 425.19404624 260.85907818 425.625 259.0234375 C428.44363245 246.89980663 430.89240481 234.74891345 433.3359375 222.53125 C417.4959375 222.53125 401.6559375 222.53125 385.3359375 222.53125 Z M175.0234375 390.78125 C170.98659972 395.97619698 169.00641327 400.83422497 169.2734375 407.46875 C170.21029288 413.94700532 173.27198892 419.06715316 178.37109375 423.16796875 C183.98698125 426.83141686 188.57636533 427.98188814 195.3359375 427.53125 C202.46687051 425.80952283 206.3049557 422.35205806 210.5859375 416.40625 C213.91668365 410.9343099 213.93565117 405.78540686 213.3359375 399.53125 C211.56894385 393.29354951 207.65241433 389.0833576 202.3359375 385.53125 C192.66012123 380.80085093 182.21888682 383.05542358 175.0234375 390.78125 Z M363.3359375 392.53125 C359.67877131 397.99901322 358.26602536 402.98918309 359.3359375 409.53125 C361.27417224 416.73906045 365.23255172 421.35149943 371.3359375 425.53125 C376.60741843 428.05716795 381.98925319 428.44293297 387.6015625 426.9140625 C394.72495489 424.17615998 399.43328728 419.41927436 402.7734375 412.59375 C404.1885291 404.8893624 403.76216768 399.14882692 399.3359375 392.53125 C395.24293947 387.52869685 390.31470801 384.15747938 383.87890625 383.14453125 C375.28669943 382.76177549 368.79445832 385.85972456 363.3359375 392.53125 Z " fill="#000000" transform="translate(25.6640625,26.46875)"/>
</svg>
