<svg width="196" height="151" viewBox="0 0 196 151" fill="none" xmlns="http://www.w3.org/2000/svg">
<g clip-path="url(#clip0_127_214)">
<path d="M66.1063 31.8043L57.1523 89.8759H71.5589L68.7377 31.9411C68.6586 30.3517 66.3489 30.2306 66.1063 31.8043Z" fill="white"/>
<path d="M132.955 59.6505L126.975 22.8255C126.606 20.5414 124.629 18.8625 122.308 18.8625H117.742V10.9312C117.742 4.89983 112.827 0 106.795 0H92.7097C86.6718 0 81.7571 4.90509 81.7571 10.9312V18.8625H76.6843C73.9211 18.8625 71.7485 21.215 71.9753 23.9676L76.9163 84.8391L77.3276 89.8758H137.87L132.955 59.6558V59.6505ZM115.912 24.015C117.831 24.015 119.382 25.5623 119.382 27.478C119.382 29.3937 117.831 30.9463 115.912 30.9463C113.993 30.9463 112.437 29.3937 112.437 27.478C112.437 25.5623 113.993 24.015 115.912 24.015ZM115.706 62.5083L109.036 69.2028L100.989 61.1242L98.9479 68.166C98.4417 69.9133 95.9369 69.8081 95.5836 68.0239L91.3175 46.7668C91.075 45.5458 92.1454 44.4721 93.3636 44.7195L114.52 48.9878C116.302 49.3509 116.408 51.8666 114.657 52.3719L107.633 54.4086L115.706 62.5083ZM85.7964 10.9312C85.7964 7.1208 88.9024 4.02618 92.7149 4.02618H106.8C110.612 4.02618 113.713 7.1208 113.713 10.9312V18.8625H85.7964V10.9312ZM83.7768 24.015C85.6962 24.015 87.2519 25.5623 87.2519 27.478C87.2519 29.3937 85.6962 30.9463 83.7768 30.9463C81.8573 30.9463 80.3017 29.3937 80.3017 27.478C80.3017 25.5623 81.8573 24.015 83.7768 24.015Z" fill="white"/>
<path style="mix-blend-mode:multiply" opacity="0.46" d="M68.7377 31.9411L71.5589 89.8759H57.1523L66.1063 31.8043C66.3489 30.2306 68.6586 30.3517 68.7377 31.9411Z" fill="white"/>
<path d="M48.3576 150.479C47.7986 150.126 47.382 149.658 47.1025 149.058C46.823 148.463 46.6807 147.8 46.6807 147.079C46.6807 146.358 46.823 145.7 47.1025 145.105C47.382 144.511 47.8039 144.042 48.3576 143.69C48.9112 143.337 49.5862 143.163 50.3667 143.163C51.1471 143.163 51.8168 143.337 52.3758 143.69C52.9347 144.042 53.3513 144.511 53.6308 145.105C53.9103 145.7 54.0527 146.353 54.0527 147.068C54.0527 147.784 53.9103 148.463 53.6308 149.058C53.3513 149.653 52.9295 150.126 52.3758 150.479C51.8168 150.826 51.1471 151.005 50.3667 151.005C49.5862 151.005 48.9165 150.831 48.3576 150.479ZM51.8063 149.8C52.207 149.532 52.5076 149.158 52.7133 148.684C52.9189 148.211 53.0244 147.674 53.0244 147.074C53.0244 146.474 52.9189 145.942 52.7133 145.474C52.5076 145 52.2018 144.632 51.801 144.358C51.4002 144.084 50.9204 143.948 50.3667 143.948C49.813 143.948 49.3226 144.084 48.9218 144.358C48.521 144.632 48.2152 145.005 48.0095 145.474C47.8039 145.947 47.6984 146.479 47.6984 147.074C47.6984 147.668 47.8039 148.205 48.0095 148.684C48.2152 149.163 48.521 149.532 48.9218 149.8C49.3226 150.068 49.8077 150.205 50.3667 150.205C50.9256 150.205 51.4055 150.068 51.8063 149.8Z" fill="white"/>
<path d="M64.7613 143.311V150.826L63.8754 150.837L59.6252 144.937L59.6779 147.558V150.832H58.6602V143.316H59.5461L63.7963 149.226L63.7436 146.3V143.316H64.7613V143.311Z" fill="white"/>
<path d="M74.6184 150.063V150.826H69.999V143.311H71.0168V150.063H74.6131H74.6184Z" fill="white"/>
<path d="M78.9678 143.311H79.9855V150.826H78.9678V143.311Z" fill="white"/>
<path d="M91.3287 143.311V150.826L90.4428 150.837L86.1925 144.937L86.2453 147.558V150.832H85.2275V143.316H86.1134L90.3637 149.226L90.311 146.3V143.316H91.3287V143.311Z" fill="white"/>
<path d="M101.184 150.063V150.826H96.5645V143.311H100.962V144.074H97.5875V146.474H100.519V147.237H97.5875V150.068H101.184V150.063Z" fill="white"/>
<path d="M111.858 150.827C111.446 150.711 111.067 150.532 110.719 150.295L111.072 149.542C111.694 149.985 112.438 150.206 113.308 150.206C113.809 150.206 114.225 150.084 114.558 149.842C114.89 149.6 115.059 149.269 115.059 148.848C115.059 148.59 114.98 148.374 114.827 148.195C114.674 148.016 114.479 147.874 114.247 147.769C114.015 147.664 113.693 147.537 113.276 147.39C112.781 147.211 112.385 147.053 112.085 146.906C111.784 146.758 111.531 146.548 111.32 146.279C111.109 146.011 111.004 145.664 111.004 145.248C111.004 144.585 111.241 144.074 111.71 143.711C112.185 143.348 112.786 143.169 113.524 143.169C114.41 143.169 115.18 143.401 115.839 143.864L115.486 144.595C114.895 144.169 114.247 143.953 113.545 143.953C113.097 143.953 112.728 144.058 112.438 144.274C112.148 144.49 112.005 144.795 112.005 145.2C112.005 145.453 112.085 145.664 112.237 145.832C112.39 146 112.585 146.137 112.812 146.248C113.039 146.353 113.361 146.485 113.767 146.627C114.262 146.806 114.658 146.969 114.964 147.121C115.264 147.274 115.523 147.485 115.739 147.764C115.955 148.042 116.061 148.39 116.061 148.811C116.061 149.258 115.945 149.653 115.718 149.985C115.491 150.316 115.164 150.569 114.748 150.748C114.331 150.927 113.851 151.011 113.303 151.011C112.754 151.011 112.264 150.953 111.852 150.832L111.858 150.827Z" fill="white"/>
<path d="M126.764 143.311V150.826H125.746V147.232H121.681V150.826H120.663V143.311H121.681V146.458H125.746V143.311H126.764Z" fill="white"/>
<path d="M133.071 150.479C132.512 150.126 132.096 149.658 131.816 149.058C131.537 148.463 131.395 147.8 131.395 147.079C131.395 146.358 131.537 145.7 131.816 145.105C132.096 144.511 132.518 144.042 133.071 143.69C133.625 143.337 134.3 143.163 135.081 143.163C135.861 143.163 136.531 143.337 137.09 143.69C137.649 144.042 138.065 144.511 138.345 145.105C138.624 145.7 138.767 146.353 138.767 147.068C138.767 147.784 138.624 148.463 138.345 149.058C138.065 149.653 137.643 150.126 137.09 150.479C136.531 150.826 135.861 151.005 135.081 151.005C134.3 151.005 133.63 150.831 133.071 150.479ZM136.52 149.8C136.921 149.532 137.221 149.158 137.427 148.684C137.633 148.211 137.738 147.674 137.738 147.074C137.738 146.474 137.633 145.942 137.427 145.474C137.221 145 136.916 144.632 136.515 144.358C136.114 144.084 135.634 143.948 135.081 143.948C134.527 143.948 134.036 144.084 133.636 144.358C133.235 144.632 132.929 145.005 132.723 145.474C132.518 145.947 132.412 146.479 132.412 147.074C132.412 147.668 132.518 148.205 132.723 148.684C132.929 149.163 133.235 149.532 133.636 149.8C134.036 150.068 134.522 150.205 135.081 150.205C135.64 150.205 136.119 150.068 136.52 149.8Z" fill="white"/>
<path d="M147.943 143.9C148.396 144.295 148.623 144.832 148.623 145.521C148.623 146.211 148.396 146.769 147.943 147.158C147.489 147.547 146.819 147.742 145.933 147.742H144.394V150.826H143.376V143.311H145.933C146.819 143.311 147.489 143.506 147.943 143.9ZM147.605 145.521C147.605 145.063 147.463 144.711 147.173 144.453C146.883 144.2 146.471 144.074 145.933 144.074H144.394V146.969H145.933C147.046 146.969 147.605 146.484 147.605 145.521Z" fill="white"/>
<path d="M0.628906 101.954H7.20992C11.4602 101.954 14.3288 102.149 15.8264 102.538C17.324 102.928 18.463 103.57 19.2435 104.454C20.0239 105.343 20.5091 106.333 20.7042 107.428C20.8993 108.517 20.9942 110.664 20.9942 113.859V125.68C20.9942 128.711 20.8518 130.737 20.5671 131.758C20.2823 132.779 19.7813 133.579 19.0747 134.158C18.3628 134.737 17.4875 135.137 16.4434 135.369C15.3993 135.6 13.8226 135.711 11.7238 135.711H0.628906V101.954ZM9.42469 107.733V129.937C10.6903 129.937 11.4707 129.685 11.766 129.174C12.0613 128.664 12.2037 127.285 12.2037 125.038V111.922C12.2037 110.391 12.1562 109.412 12.056 108.98C11.9558 108.549 11.7344 108.233 11.3863 108.033C11.0383 107.833 10.3844 107.733 9.42469 107.733Z" fill="white"/>
<path d="M39.4816 101.954L44.5123 135.711H35.5214L35.0468 129.643H31.8987L31.3714 135.711H22.2803L26.7678 101.954H39.4816ZM34.8201 123.659C34.3771 119.832 33.9289 115.106 33.4807 109.48C32.5842 115.943 32.02 120.669 31.7932 123.659H34.8201Z" fill="white"/>
<path d="M54.8016 101.954V135.711H46.0059V101.954H54.8016Z" fill="white"/>
<path d="M67.1249 101.954V128.953H72.472V135.711H58.3291V101.954H67.1249Z" fill="white"/>
<path d="M90.5643 101.954L84.152 123.49V135.711H76.0049V123.49L69.8193 101.954H77.898C79.1583 108.543 79.8701 112.98 80.0336 115.259C80.5188 111.659 81.3361 107.222 82.4857 101.954H90.5643Z" fill="white"/>
<path d="M99.6133 101.954H114.51V108.712H108.409V115.112H113.841V121.532H108.409V135.711H99.6133V101.954Z" fill="white"/>
<path d="M125.431 101.954V135.711H116.635V101.954H125.431Z" fill="white"/>
<path d="M148.602 101.954V135.711H140.892L136.315 120.364V135.711H128.959V101.954H136.315L141.246 117.154V101.954H148.602Z" fill="white"/>
<path d="M152.129 101.954H158.71C162.96 101.954 165.829 102.149 167.326 102.538C168.824 102.928 169.963 103.57 170.743 104.454C171.524 105.343 172.009 106.333 172.204 107.428C172.399 108.517 172.494 110.664 172.494 113.859V125.68C172.494 128.711 172.352 130.737 172.067 131.758C171.782 132.779 171.281 133.579 170.575 134.158C169.863 134.737 168.987 135.137 167.943 135.369C166.899 135.6 165.323 135.711 163.224 135.711H152.129V101.954ZM160.925 107.733V129.937C162.19 129.937 162.971 129.685 163.266 129.174C163.561 128.664 163.704 127.285 163.704 125.038V111.922C163.704 110.391 163.656 109.412 163.556 108.98C163.456 108.549 163.234 108.233 162.886 108.033C162.538 107.833 161.884 107.733 160.925 107.733Z" fill="white"/>
<path d="M194.415 112.175H186.247V109.675C186.247 108.507 186.141 107.765 185.936 107.444C185.725 107.123 185.377 106.965 184.892 106.965C184.364 106.965 183.964 107.181 183.689 107.612C183.42 108.044 183.283 108.696 183.283 109.575C183.283 110.701 183.436 111.549 183.742 112.122C184.032 112.691 184.86 113.38 186.226 114.186C190.139 116.506 192.606 118.406 193.624 119.896C194.642 121.385 195.148 123.78 195.148 127.09C195.148 129.496 194.863 131.269 194.304 132.406C193.74 133.548 192.649 134.501 191.035 135.274C189.421 136.048 187.539 136.432 185.393 136.432C183.041 136.432 181.032 135.985 179.365 135.095C177.699 134.206 176.613 133.074 176.096 131.695C175.579 130.322 175.321 128.364 175.321 125.838V123.627H183.489V127.732C183.489 128.996 183.605 129.811 183.832 130.174C184.064 130.538 184.47 130.717 185.055 130.717C185.64 130.717 186.073 130.485 186.363 130.027C186.648 129.569 186.79 128.885 186.79 127.985C186.79 125.996 186.516 124.696 185.978 124.085C185.419 123.475 184.048 122.454 181.865 121.022C179.676 119.575 178.232 118.527 177.52 117.875C176.808 117.222 176.222 116.317 175.753 115.164C175.284 114.012 175.052 112.538 175.052 110.744C175.052 108.159 175.384 106.27 176.043 105.07C176.702 103.875 177.773 102.939 179.249 102.265C180.726 101.591 182.508 101.254 184.596 101.254C186.88 101.254 188.825 101.623 190.434 102.36C192.042 103.096 193.107 104.023 193.629 105.144C194.151 106.265 194.415 108.165 194.415 110.844V112.18V112.175Z" fill="white"/>
</g>
<defs>
<clipPath id="clip0_127_214">
<rect width="194.52" height="151" fill="white" transform="translate(0.628906)"/>
</clipPath>
</defs>
</svg>
