<svg width="338" height="171" viewBox="0 0 338 171" fill="none" xmlns="http://www.w3.org/2000/svg">
<path d="M16.98 60.43L0 170.77H27.32L21.97 60.69C21.82 57.67 17.44 57.44 16.98 60.43Z" fill="url(#paint0_linear_101_290)"/>
<path d="M143.75 113.34L132.41 43.37C131.71 39.03 127.96 35.84 123.56 35.84H114.9V20.77C114.9 9.31 105.58 0 94.14 0H67.43C55.9799 0 46.66 9.32 46.66 20.77V35.84H37.04C31.8 35.84 27.68 40.31 28.11 45.54L37.48 161.2L38.2599 170.77H153.07L143.75 113.35V113.34ZM111.43 45.63C115.07 45.63 118.01 48.57 118.01 52.21C118.01 55.85 115.07 58.8 111.43 58.8C107.79 58.8 104.84 55.85 104.84 52.21C104.84 48.57 107.79 45.63 111.43 45.63ZM111.04 118.77L98.39 131.49L83.1299 116.14L79.26 129.52C78.3 132.84 73.5499 132.64 72.8799 129.25L64.79 88.86C64.33 86.54 66.3599 84.5 68.6699 84.97L108.79 93.08C112.17 93.77 112.37 98.55 109.05 99.51L95.73 103.38L111.04 118.77ZM54.32 20.77C54.32 13.53 60.21 7.65 67.44 7.65H94.15C101.38 7.65 107.26 13.53 107.26 20.77V35.84H54.32V20.77ZM50.49 45.63C54.13 45.63 57.08 48.57 57.08 52.21C57.08 55.85 54.13 58.8 50.49 58.8C46.85 58.8 43.9 55.85 43.9 52.21C43.9 48.57 46.85 45.63 50.49 45.63Z" fill="url(#paint1_linear_101_290)"/>
<path style="mix-blend-mode:multiply" opacity="0.46" d="M21.97 60.69L27.32 170.77H0L16.98 60.43C17.44 57.44 21.82 57.67 21.97 60.69Z" fill="url(#paint2_linear_101_290)"/>
<path d="M201.1 46.54C200.72 44.41 199.77 42.48 198.25 40.73C196.73 39 194.51 37.75 191.58 36.99C188.66 36.23 183.06 35.85 174.77 35.85H161.93V101.84H183.58C187.69 101.84 190.75 101.61 192.79 101.17C194.83 100.72 196.54 99.94 197.92 98.8C199.31 97.67 200.29 96.1 200.84 94.11C201.4 92.11 201.67 88.15 201.67 82.24V59.12C201.67 52.88 201.47 48.68 201.09 46.55L201.1 46.54ZM184.51 80.96C184.51 85.36 184.22 88.06 183.66 89.05C183.08 90.05 181.56 90.54 179.09 90.54V47.14C180.96 47.14 182.24 47.34 182.93 47.73C183.6 48.12 184.04 48.74 184.23 49.58C184.43 50.42 184.52 52.34 184.52 55.33V80.97L184.51 80.96Z" fill="#4B116E"/>
<path d="M237.73 35.84H212.93L204.19 101.83H221.93L222.96 89.97H229.1L230.02 101.83H247.56L237.75 35.84H237.73ZM222.73 78.27C223.17 72.44 224.27 63.19 226.02 50.55C226.89 61.56 227.77 70.8 228.63 78.27H222.72H222.73Z" fill="#4B116E"/>
<path d="M267.62 35.84H250.46V101.83H267.62V35.84Z" fill="#4B116E"/>
<path d="M291.66 35.84V88.62H302.1V101.83H274.5V35.84H291.66Z" fill="#4B116E"/>
<path d="M337.39 35.84L324.88 77.94V101.82H308.98V77.94L296.92 35.84H312.68C315.14 48.72 316.53 57.39 316.85 61.84C317.8 54.8 319.39 46.13 321.63 35.84H337.39Z" fill="#4B116E"/>
<path d="M162.27 107.47H189.58V119.87H178.4V131.63H188.35V143.43H178.4V169.47H162.27V107.47Z" fill="#4B116E"/>
<path d="M209.6 107.47H193.48V169.47H209.6V107.47Z" fill="#4B116E"/>
<path d="M252.07 107.47V169.47H237.94L229.56 141.28V169.47H216.08V107.47H229.56L238.59 135.38V107.47H252.07Z" fill="#4B116E"/>
<path d="M295.35 117.52C294.99 115.52 294.09 113.7 292.67 112.06C291.24 110.44 289.15 109.26 286.41 108.54C283.66 107.82 278.4 107.47 270.62 107.47H258.56V169.47H278.89C282.75 169.47 285.64 169.26 287.55 168.84C289.46 168.41 291.07 167.68 292.37 166.62C293.67 165.56 294.58 164.09 295.11 162.21C295.63 160.33 295.89 156.61 295.89 151.06V129.34C295.89 123.47 295.72 119.53 295.36 117.53L295.35 117.52ZM279.76 149.86C279.76 154 279.5 156.53 278.96 157.46C278.43 158.4 277 158.86 274.68 158.86V118.08C276.44 118.08 277.64 118.26 278.28 118.63C278.92 119 279.32 119.58 279.51 120.37C279.68 121.16 279.77 122.96 279.77 125.77V149.86H279.76Z" fill="#4B116E"/>
<path d="M336.05 126.23H321.08V121.63C321.08 119.49 320.89 118.12 320.51 117.53C320.13 116.94 319.49 116.65 318.6 116.65C317.63 116.65 316.9 117.05 316.4 117.84C315.9 118.63 315.65 119.83 315.65 121.44C315.65 123.51 315.93 125.07 316.49 126.12C317.02 127.17 318.54 128.43 321.05 129.91C328.23 134.17 332.75 137.66 334.61 140.4C336.47 143.13 337.41 147.54 337.41 153.61C337.41 158.03 336.89 161.28 335.86 163.38C334.83 165.47 332.83 167.23 329.87 168.65C326.91 170.07 323.46 170.77 319.53 170.77C315.22 170.77 311.53 169.95 308.48 168.32C305.43 166.69 303.43 164.61 302.49 162.08C301.55 159.55 301.07 155.97 301.07 151.32V147.26H316.04V154.8C316.04 157.12 316.25 158.62 316.67 159.28C317.09 159.94 317.84 160.28 318.91 160.28C319.98 160.28 320.78 159.86 321.3 159.02C321.82 158.18 322.08 156.93 322.08 155.27C322.08 151.62 321.58 149.23 320.59 148.11C319.57 146.99 317.05 145.11 313.05 142.48C309.04 139.82 306.39 137.9 305.08 136.7C303.78 135.5 302.7 133.84 301.84 131.72C300.98 129.6 300.56 126.89 300.56 123.6C300.56 118.85 301.17 115.38 302.38 113.18C303.59 110.98 305.55 109.27 308.26 108.03C310.97 106.79 314.23 106.17 318.06 106.17C322.25 106.17 325.81 106.85 328.76 108.2C331.71 109.55 333.66 111.26 334.62 113.31C335.58 115.36 336.06 118.86 336.06 123.78V126.23H336.05Z" fill="#4B116E"/>
<defs>
<linearGradient id="paint0_linear_101_290" x1="74.41" y1="7.32999" x2="2.78999" y2="155.5" gradientUnits="userSpaceOnUse">
<stop stop-color="#FF8F18"/>
<stop offset="0.52" stop-color="#E0277B"/>
<stop offset="1" stop-color="#7F53F5"/>
</linearGradient>
<linearGradient id="paint1_linear_101_290" x1="126.47" y1="32.49" x2="54.85" y2="180.66" gradientUnits="userSpaceOnUse">
<stop stop-color="#FF8F18"/>
<stop offset="0.52" stop-color="#E0277B"/>
<stop offset="1" stop-color="#7F53F5"/>
</linearGradient>
<linearGradient id="paint2_linear_101_290" x1="12.05" y1="163.43" x2="37.98" y2="40.57" gradientUnits="userSpaceOnUse">
<stop stop-color="#4B116E"/>
<stop offset="1" stop-color="#3F1170" stop-opacity="0"/>
</linearGradient>
</defs>
</svg>
